PathFileType	4	(X/Y/Z)	C:/Users/beibeiliu/ov580/test_trc/capture2\sequence.8_training_dense_left.trc
DataRate	CameraRate	NumFrames	NumMarkers	Units	OrigDataRate	OrigDataStartFrame	OrigNumFrames
120	120	8	19	mm	120	1	400
Frame#	Time	ThumbCMC			ThumbMCP			ThumbIP			ThumbTip			IndexMCP			IndexPIP			IndexTip			MiddleMCP			MiddlePIP			MiddleTip			RingMCP			RingPIP			RingTip			PinkyMCP			PinkyPIP			PinkyTip			BackHand1			BackHand2			BackHand3	
		X0	Y0	Z0	X1	Y1	Z1	X2	Y2	Z2	X3	Y3	Z3	X4	Y4	Z4	X5	Y5	Z5	X6	Y6	Z6	X7	Y7	Z7	X8	Y8	Z8	X9	Y9	Z9	X10	Y10	Z10	X11	Y11	Z11	X12	Y12	Z12	X13	Y13	Z13	X14	Y14	Z14	X15	Y15	Z15	X16	Y16	Z16	X17	Y17	Z17	X18	Y18	Z18	
0	0	-108.201	43.8142	-41.3531	-93.5809	27.5318	-52.8938	-69.5322	23.4967	-64.8602	-49.0417	20.0052	-73.8625	-118.169	42.6272	-115.411	-109.655	38.5147	-136.574	-103.318	43.9393	-163.777	-142.29	47.2098	-124.64	-144.136	46.9555	-148.638	-146.414	51.9459	-174.718	-165.519	43.9237	-122.674	-171.625	42.7285	-140.375	-178.623	44.9002	-164.34	-193.994	36.3113	-106.244	-202.907	30.0687	-117.859	-215.227	35.0703	-137.418	-163.185	62.0824	-77.8959	-164.606	72.175	-44.4295	-133.274	65.0038	-61.449	
1	0.00833333	-110.392	42.1929	-43.4338	-92.8666	27.6149	-54.0326	-74.4226	21.3541	-67.8998	-50.4243	18.1378	-75.0345	-119.326	42.3223	-116.965	-111.451	39.5929	-141.055	-106.518	43.3816	-165.582	-142.293	46.5187	-127.037	-143.794	45.7354	-146.1	-147.025	51.225	-174.817	-170.572	44.2642	-120.078	-171.794	41.2397	-140.721	-179.653	45.7855	-168.858	-190.858	36.2924	-103.114	-206.7	30.2961	-121.736	-217.636	36.4961	-134.503	-166.472	61.3623	-73.8961	-164.22	71.6354	-47.1469	-133.338	62.8979	-62.762	
2	0.0166667	-111.681	41.5853	-41.1142	-96.3335	26.9339	-51.7412	-70.5861	20.3599	-68.2535	-55.4458	17.1122	-73.4489	-114.578	40.5006	-118.978	-112.983	38.1723	-138.612	-104.468	41.8684	-160.254	-145.294	46.503	-123.491	-144.678	44.6677	-147.053	-144.288	49.3353	-172.849	-165.977	43.2732	-118.283	-173.455	40.87	-144.808	-180.983	44.6385	-167.639	-193.443	36.8515	-103.862	-206.319	29.7874	-119.485	-217.416	33.949	-135.705	-167.778	61.6103	-74.3385	-164.577	69.504	-46.6644	-135.808	62.9964	-59.7211	
3	0.025	-108.028	40.105	-45.3697	-95.7797	25.2822	-54.6131	-72.9581	19.4931	-67.0757	-55.5593	16.2982	-71.3197	-117.494	40.0524	-118.85	-108.066	38.1178	-140.708	-109.912	41.2934	-160.418	-142.964	45.3597	-122.005	-144.735	44.4687	-149.17	-146.701	48.8565	-173.684	-165.957	42.6229	-120.884	-174.08	40.4581	-143.357	-177.899	42.5807	-163.279	-188.77	35.464	-103.92	-202.014	30.0379	-121.221	-216.747	36.1269	-135.146	-166.19	58.9711	-76.7615	-168.301	69.3797	-47.9689	-134.221	61.8147	-62.6291	
4	0.0333333	-112.007	39.3905	-42.0602	-93.1989	23.7964	-55.6539	-70.4936	18.9555	-64.4244	-51.7313	15.4541	-70.7125	-114.738	39.1839	-114.977	-110.11	36.4332	-136.081	-104.688	40.0383	-158.503	-139.821	45.1136	-127.415	-141.296	42.8013	-151.365	-143.369	47.1866	-172.114	-169.994	41.1985	-119.322	-172.23	39.6432	-144.695	-179.855	42.086	-167.282	-194.195	34.4453	-103.884	-199.995	28.537	-120.198	-216.456	35.7872	-135.043	-165.972	59.7895	-76.2943	-161.639	67.9418	-48.9735	-134.303	59.7625	-62.3108	
5	0.0416667	-110.314	36.4284	-45.3654	-93.9978	21.7962	-54.4884	-70.636	15.2665	-67.9212	-50.3767	11.8578	-70.4508	-113.356	36.6545	-113.11	-111.017	34.0003	-140.158	-104.219	36.9397	-158.251	-142.942	43.1476	-125.915	-140.856	41.772	-147.946	-145.016	46.2555	-172.902	-169.504	40.5308	-118.996	-174.199	38.8847	-143.552	-179.568	41.1851	-163.592	-191.128	35.2477	-104.229	-198.886	28.7818	-117.968	-216.316	34.2457	-134.115	-161.455	58.9873	-72.2684	-162.814	67.02	-46.3835	-129.881	58.023	-60.2492	
6	0.05	-107.494	33.1458	-43.3775	-91.2644	17.698	-52.7278	-73.834	9.65167	-62.7772	-53.4667	5.88682	-70.3145	-115.066	33.7442	-117.6	-107.274	29.5506	-134.032	-104.518	34.0731	-157.615	-142.416	41.3127	-125.37	-139.284	39.3018	-144.63	-140.657	45.8899	-173.187	-163.434	38.7581	-116.48	-171.365	37.3378	-140.042	-174.467	42.1178	-166.739	-192.48	34.5572	-102.905	-203.09	29.4364	-121.228	-215.515	36.1606	-135.212	-159.474	55.0475	-70.4726	-162.894	65.8589	-43.844	-131.599	57.5659	-58.2619	
7	0.0583333	-107.16	30.6129	-37.8633	-92.8829	13.2963	-49.0658	-68.6556	5.50448	-63.2907	-51.2205	0.583373	-66.5692	-112.175	30.8052	-115.142	-103.615	26.0714	-137.525	-103.004	30.9888	-156.821	-138.273	38.5024	-124.364	-137.899	37.0728	-144.866	-134.289	43.3177	-174.92	-161.209	37.6927	-117.469	-171.62	36.797	-139.956	-174.497	39.933	-162.818	-191.18	34.8519	-105.425	-198.657	29.333	-118.422	-214.109	37.2869	-137.849	-162.147	55.1713	-70.3855	-160.145	63.718	-45.1863	-126.126	54.473	-58.319	
